# xmcd
#
# Track frame offsets: 
#        150
#        16040
#        31710
#        51998
#        65584
#        89324
#        102237
#        120287
#        134348
#        152346
#        167024
#        182959
#        198623
#        216697
#
# Disc length: 3062 seconds
#
# Revision: 2
# Processed by: cddbd v1.5.1PL2 Copyright (c) Steve Scherf et al.
# Submitted via: ExactAudioCopy v0.95a5
#
DISCID=bc0bf40e
DTITLE=Heli Deinboek - Relativ Positiv
DYEAR=1997
DGENRE=Pop
TTITLE0=Meier (Short People)
TTITLE1=Relativ negativ
TTITLE2=Killer vom Billa
TTITLE3=Oberwart (Birmingham)
TTITLE4=Grüss Gott i kriag an Stempe
TTITLE5=Wer tötete den Osterhasen?
TTITLE6=Lintschi
TTITLE7=MOB (Little Criminals)
TTITLE8=Wie geht's wie steht's?
TTITLE9=Der 6. Sinn
TTITLE10=Petzi
TTITLE11=Fischblut X 2000
TTITLE12=Steinbock in Stein
TTITLE13=Mei Zeit wird kumma
EXTD=
EXTT0=
EXTT1=
EXTT2=
EXTT3=
EXTT4=
EXTT5=
EXTT6=
EXTT7=
EXTT8=
EXTT9=
EXTT10=
EXTT11=
EXTT12=
EXTT13=
PLAYORDER=
